<svg width="146" height="145" viewBox="0 0 146 145" fill="none" xmlns="http://www.w3.org/2000/svg">
<path d="M64.7238 139.807L68.479 52.5H71.521L75.2762 139.807C75.3862 142.365 73.3415 144.5 70.7803 144.5H69.2197C66.6585 144.5 64.6138 142.365 64.7238 139.807Z" fill="white" stroke="white"/>
<path d="M85.5 30.5C85.5 44.9815 77.9001 52.5 70 52.5C62.0999 52.5 54.5 44.9815 54.5 30.5C54.5 23.2612 56.4102 15.7142 59.3385 9.98937C60.8026 7.12714 62.5105 4.7413 64.3413 3.07754C66.1736 1.41255 68.0945 0.5 70 0.5C71.9055 0.5 73.8264 1.41255 75.6587 3.07754C77.4895 4.7413 79.1974 7.12714 80.6615 9.98937C83.5898 15.7142 85.5 23.2612 85.5 30.5Z" fill="white" stroke="white"/>
<path d="M65 50.37C67 51.37 69.37 53 69.37 55" stroke="white" stroke-width="3"/>
<path d="M74.999 50.37C72.999 51.37 70.629 53 70.629 55" stroke="white" stroke-width="3"/>
<rect x="78.8822" y="90.2253" width="11" height="53" rx="1" transform="rotate(-45 78.8822 90.2253)" fill="white"/>
<rect x="48.4767" y="54.8701" width="4" height="50" transform="rotate(-45 48.4767 54.8701)" fill="white" stroke="white"/>
<path d="M42.0968 57.832L37.1831 53.4356L49.8707 40.7481L54.2671 45.6617C54.7979 46.255 54.7728 47.1596 54.2099 47.7226L44.1576 57.7748C43.5947 58.3378 42.6901 58.3629 42.0968 57.832Z" fill="white" stroke="white"/>
<path d="M36.476 52.7285L14.9676 28.6897L39.9553 49.2492L36.476 52.7285Z" fill="white" stroke="white"/>
<path d="M49.1636 40.041L25.1247 18.5325L45.6843 43.5203L49.1636 40.041Z" fill="white" stroke="white"/>
<path d="M34.9851 46.4414C35.3952 46.7384 40.3449 50.981 43.8805 47.4455" stroke="white" stroke-width="3"/>
<path d="M42.8764 38.55C43.1734 38.9602 47.416 43.9099 43.8805 47.4455" stroke="white" stroke-width="3"/>
<path d="M43.8805 56.6378C46.3553 54.1629 49.2545 54.2337 50.9515 55.9307" stroke="white" stroke-width="3"/>
<path d="M53.0728 47.4454C50.598 49.9203 50.6687 52.8194 52.3657 54.5165" stroke="white" stroke-width="3"/>
<path d="M42.6325 103.51L42.6324 103.51L42.626 103.516L25.3014 121.495C24.719 122.099 23.7541 122.108 23.1606 121.514L18.2703 116.624C17.6749 116.029 17.6861 115.06 18.2951 114.479L36.4057 97.1851L36.4058 97.1852L36.4139 97.177L45.9028 87.6881L50.6758 82.9151L50.6824 82.9086L50.6887 82.9018L52.9784 80.4358L53.9462 79.468C54.532 78.8822 55.4817 78.8822 56.0675 79.468L60.3101 83.7106C60.8959 84.2964 60.8959 85.2462 60.3101 85.832L42.6325 103.51Z" fill="white" stroke="white"/>
<path d="M70.9014 96.4232L53.9462 79.468L118.65 14.7692L117.906 19.9942L116.743 26.6849L115.338 32.3055L113.231 38.6263L107.95 50.2438L104.783 55.5227L101.615 60.8025L94.9227 69.6078L86.4526 79.4897L70.9014 96.4232Z" fill="white" stroke="white"/>
<path d="M54.6533 90.0746C56.7746 87.9533 61.9208 86.0284 66.3205 90.4281" stroke="white" stroke-width="3"/>
<rect x="17" y="60" width="109" height="25" rx="5" fill="white"/>
<path d="M0 71.2361C0 70.4785 0.428005 69.786 1.10557 69.4472L1.89446 69.0528C2.29632 68.8518 2.66926 68.5977 3.00322 68.2971L3.78252 67.5957C4.57349 66.8839 5.57096 66.4429 6.62982 66.337L9.54397 66.0456C9.84736 66.0153 10.1529 66.0127 10.4567 66.0381L16 66.5L20 67V78L16 78.5L10.4567 78.9619C10.1529 78.9873 9.84736 78.9847 9.54397 78.9544L6.91058 78.6911C5.68065 78.5681 4.53986 77.9939 3.7084 77.0792L3.34729 76.682C2.79291 76.0722 2.08292 75.6249 1.29354 75.3881V75.3881C0.525777 75.1577 0 74.4511 0 73.6495V71.2361Z" fill="white"/>
<path d="M146 73.7639C146 74.5215 145.572 75.214 144.894 75.5528L144.106 75.9472C143.704 76.1482 143.331 76.4023 142.997 76.7029L142.217 77.4043C141.427 78.1161 140.429 78.5571 139.37 78.663L136.456 78.9544C136.153 78.9847 135.847 78.9873 135.543 78.9619L130 78.5L126 78V67L130 66.5L135.543 66.0381C135.847 66.0127 136.153 66.0153 136.456 66.0456L139.089 66.3089C140.319 66.4319 141.46 67.0061 142.292 67.9208L142.653 68.318C143.207 68.9278 143.917 69.3751 144.706 69.6119V69.6119C145.474 69.8423 146 70.5489 146 71.3505V73.7639Z" fill="white"/>
<path d="M14.7 67.5C15.7 67.5 17.15 67 17.55 64.5" stroke="white"/>
<path d="M128.4 67.5C127.4 67.5 125.95 67 125.55 64.5" stroke="white"/>
<path d="M125.5 80C125.535 79.0006 126.061 77.8343 128.574 77.5218" stroke="white"/>
<path d="M40 71.2361C40 70.4785 39.572 69.786 38.8944 69.4472L38.1055 69.0528C37.7037 68.8518 37.3307 68.5977 36.9968 68.2971L36.2175 67.5957C35.4265 66.8839 34.429 66.4429 33.3702 66.337L30.456 66.0456C30.1526 66.0153 29.8471 66.0127 29.5433 66.0381L24 66.5L20 67V78L24 78.5L29.5433 78.9619C29.8471 78.9873 30.1526 78.9847 30.456 78.9544L33.0894 78.6911C34.3194 78.5681 35.4601 77.9939 36.2916 77.0792L36.6527 76.682C37.2071 76.0722 37.9171 75.6249 38.7065 75.3881V75.3881C39.4742 75.1577 40 74.4511 40 73.6495V71.2361Z" fill="white"/>
<path d="M14.7 67.5C15.7 67.5 17.15 68 17.55 70.5" stroke="white"/>
</svg>
